<?xml version="1.0" encoding="UTF-8" standalone="no"?>
<!-- Created with Inkscape (http://www.inkscape.org/) -->

<svg
   width="210mm"
   height="297mm"
   viewBox="0 0 210 297"
   version="1.1"
   id="svg1"
   inkscape:version="1.4.3 (0d15f75, 2025-12-25)"
   sodipodi:docname="icon.svg"
   xmlns:inkscape="http://www.inkscape.org/namespaces/inkscape"
   xmlns:sodipodi="http://sodipodi.sourceforge.net/DTD/sodipodi-0.dtd"
   xmlns="http://www.w3.org/2000/svg"
   xmlns:svg="http://www.w3.org/2000/svg">
  <sodipodi:namedview
     id="namedview1"
     pagecolor="#ffffff"
     bordercolor="#000000"
     borderopacity="0.25"
     inkscape:showpageshadow="2"
     inkscape:pageopacity="0.0"
     inkscape:pagecheckerboard="0"
     inkscape:deskcolor="#d1d1d1"
     inkscape:document-units="mm"
     inkscape:zoom="0.68862935"
     inkscape:cx="397.16576"
     inkscape:cy="542.38176"
     inkscape:window-width="1920"
     inkscape:window-height="991"
     inkscape:window-x="2391"
     inkscape:window-y="921"
     inkscape:window-maximized="1"
     inkscape:current-layer="8a3f0f0544" />
  <defs
     id="defs1">
    <clipPath
       id="8fe97298d8">
      <path
         d="M496 68 581 68 581 265 496 265Z"
         id="path1" />
    </clipPath>
    <clipPath
       id="3223ef0d77">
      <path
         d="M502.066 17.0547 687.719 119.926 578.305 317.387 392.648 214.516Z"
         id="path2" />
    </clipPath>
    <clipPath
       id="0ae6e81923">
      <path
         d="M502.066 17.0547 687.719 119.926 578.305 317.387 392.648 214.516Z"
         id="path3" />
    </clipPath>
    <clipPath
       id="036adfedf3">
      <path
         d="M502.066 17.0547 687.719 119.926 578.305 317.387 392.648 214.516Z"
         id="path4" />
    </clipPath>
    <clipPath
       id="6ac7f62f85">
      <path
         d="M493 66 584 66 584 267 493 267Z"
         id="path5" />
    </clipPath>
    <clipPath
       id="7cec70c79d">
      <path
         d="M502.066 17.0547 687.719 119.926 578.305 317.387 392.648 214.516Z"
         id="path6" />
    </clipPath>
    <clipPath
       id="926f413469">
      <path
         d="M502.066 17.0547 687.719 119.926 578.305 317.387 392.648 214.516Z"
         id="path7" />
    </clipPath>
    <clipPath
       id="dc3c4b416a">
      <path
         d="M502.066 17.0547 687.719 119.926 578.305 317.387 392.648 214.516Z"
         id="path8" />
    </clipPath>
    <clipPath
       id="e468b98765">
      <path
         d="M569 102 601 102 601 110 569 110Z"
         id="path9" />
    </clipPath>
    <clipPath
       id="c79fe58723">
      <path
         d="M502.066 17.0547 687.719 119.926 578.305 317.387 392.648 214.516Z"
         id="path10" />
    </clipPath>
    <clipPath
       id="1441f683c7">
      <path
         d="M502.066 17.0547 687.719 119.926 578.305 317.387 392.648 214.516Z"
         id="path11" />
    </clipPath>
    <clipPath
       id="a482986bb3">
      <path
         d="M502.066 17.0547 687.719 119.926 578.305 317.387 392.648 214.516Z"
         id="path12" />
    </clipPath>
    <clipPath
       id="f5e372b986">
      <path
         d="M560 80 579 80 579 93 560 93Z"
         id="path13" />
    </clipPath>
    <clipPath
       id="2330a351f3">
      <path
         d="M502.066 17.0547 687.719 119.926 578.305 317.387 392.648 214.516Z"
         id="path14" />
    </clipPath>
    <clipPath
       id="7022638a2a">
      <path
         d="M502.066 17.0547 687.719 119.926 578.305 317.387 392.648 214.516Z"
         id="path15" />
    </clipPath>
    <clipPath
       id="b3985f89f5">
      <path
         d="M502.066 17.0547 687.719 119.926 578.305 317.387 392.648 214.516Z"
         id="path16" />
    </clipPath>
    <clipPath
       id="11e703fa9f">
      <path
         d="M575 131 598 131 598 138 575 138Z"
         id="path17" />
    </clipPath>
    <clipPath
       id="df524809c8">
      <path
         d="M502.066 17.0547 687.719 119.926 578.305 317.387 392.648 214.516Z"
         id="path18" />
    </clipPath>
    <clipPath
       id="5649967147">
      <path
         d="M502.066 17.0547 687.719 119.926 578.305 317.387 392.648 214.516Z"
         id="path19" />
    </clipPath>
    <clipPath
       id="40935b0402">
      <path
         d="M502.066 17.0547 687.719 119.926 578.305 317.387 392.648 214.516Z"
         id="path20" />
    </clipPath>
    <clipPath
       id="b51e329ee4">
      <path
         d="M579 159 612 159 612 172 579 172Z"
         id="path21" />
    </clipPath>
    <clipPath
       id="3f490f46f6">
      <path
         d="M502.066 17.0547 687.719 119.926 578.305 317.387 392.648 214.516Z"
         id="path22" />
    </clipPath>
    <clipPath
       id="1157bb859e">
      <path
         d="M502.066 17.0547 687.719 119.926 578.305 317.387 392.648 214.516Z"
         id="path23" />
    </clipPath>
    <clipPath
       id="f3ebdfe89a">
      <path
         d="M502.066 17.0547 687.719 119.926 578.305 317.387 392.648 214.516Z"
         id="path24" />
    </clipPath>
    <clipPath
       id="3dfbf36e9c">
      <path
         d="M580 190 598 190 598 198 580 198Z"
         id="path25" />
    </clipPath>
    <clipPath
       id="c68ad446fd">
      <path
         d="M502.066 17.0547 687.719 119.926 578.305 317.387 392.648 214.516Z"
         id="path26" />
    </clipPath>
    <clipPath
       id="4d7ff2a81b">
      <path
         d="M502.066 17.0547 687.719 119.926 578.305 317.387 392.648 214.516Z"
         id="path27" />
    </clipPath>
    <clipPath
       id="8af43a013b">
      <path
         d="M502.066 17.0547 687.719 119.926 578.305 317.387 392.648 214.516Z"
         id="path28" />
    </clipPath>
    <clipPath
       id="f347fbaa64">
      <path
         d="M542 48 559 48 559 75 542 75Z"
         id="path29" />
    </clipPath>
    <clipPath
       id="e695ed8341">
      <path
         d="M502.066 17.0547 687.719 119.926 578.305 317.387 392.648 214.516Z"
         id="path30" />
    </clipPath>
    <clipPath
       id="d7ca678bae">
      <path
         d="M502.066 17.0547 687.719 119.926 578.305 317.387 392.648 214.516Z"
         id="path31" />
    </clipPath>
    <clipPath
       id="07174e3400">
      <path
         d="M502.066 17.0547 687.719 119.926 578.305 317.387 392.648 214.516Z"
         id="path32" />
    </clipPath>
    <clipPath
       id="17be0f83cd">
      <path
         d="M518 53 525 53 525 70 518 70Z"
         id="path33" />
    </clipPath>
    <clipPath
       id="097357ed76">
      <path
         d="M502.066 17.0547 687.719 119.926 578.305 317.387 392.648 214.516Z"
         id="path34" />
    </clipPath>
    <clipPath
       id="842e68f3e9">
      <path
         d="M502.066 17.0547 687.719 119.926 578.305 317.387 392.648 214.516Z"
         id="path35" />
    </clipPath>
    <clipPath
       id="cde365ea44">
      <path
         d="M502.066 17.0547 687.719 119.926 578.305 317.387 392.648 214.516Z"
         id="path36" />
    </clipPath>
    <clipPath
       id="b0336500b9">
      <path
         d="M473 67 502 67 502 85 473 85Z"
         id="path37" />
    </clipPath>
    <clipPath
       id="466cfc334a">
      <path
         d="M502.066 17.0547 687.719 119.926 578.305 317.387 392.648 214.516Z"
         id="path38" />
    </clipPath>
    <clipPath
       id="8a66ca1dcb">
      <path
         d="M502.066 17.0547 687.719 119.926 578.305 317.387 392.648 214.516Z"
         id="path39" />
    </clipPath>
    <clipPath
       id="5dfebc443c">
      <path
         d="M502.066 17.0547 687.719 119.926 578.305 317.387 392.648 214.516Z"
         id="path40" />
    </clipPath>
    <clipPath
       id="c4d47e6a44">
      <path
         d="M478 100 498 100 498 109 478 109Z"
         id="path41" />
    </clipPath>
    <clipPath
       id="879d97d07e">
      <path
         d="M502.066 17.0547 687.719 119.926 578.305 317.387 392.648 214.516Z"
         id="path42" />
    </clipPath>
    <clipPath
       id="e0d0746d71">
      <path
         d="M502.066 17.0547 687.719 119.926 578.305 317.387 392.648 214.516Z"
         id="path43" />
    </clipPath>
    <clipPath
       id="c9f2dc9657">
      <path
         d="M502.066 17.0547 687.719 119.926 578.305 317.387 392.648 214.516Z"
         id="path44" />
    </clipPath>
    <clipPath
       id="8ae6432746">
      <path
         d="M466 125 498 125 498 134 466 134Z"
         id="path45" />
    </clipPath>
    <clipPath
       id="1f25233946">
      <path
         d="M502.066 17.0547 687.719 119.926 578.305 317.387 392.648 214.516Z"
         id="path46" />
    </clipPath>
    <clipPath
       id="9f42a516fe">
      <path
         d="M502.066 17.0547 687.719 119.926 578.305 317.387 392.648 214.516Z"
         id="path47" />
    </clipPath>
    <clipPath
       id="6f1df1042f">
      <path
         d="M502.066 17.0547 687.719 119.926 578.305 317.387 392.648 214.516Z"
         id="path48" />
    </clipPath>
    <clipPath
       id="03a7ffc980">
      <path
         d="M479 158 498 158 498 166 479 166Z"
         id="path49" />
    </clipPath>
    <clipPath
       id="22f6b707bd">
      <path
         d="M502.066 17.0547 687.719 119.926 578.305 317.387 392.648 214.516Z"
         id="path50" />
    </clipPath>
    <clipPath
       id="fbc838571f">
      <path
         d="M502.066 17.0547 687.719 119.926 578.305 317.387 392.648 214.516Z"
         id="path51" />
    </clipPath>
    <clipPath
       id="b2cb7df6b1">
      <path
         d="M502.066 17.0547 687.719 119.926 578.305 317.387 392.648 214.516Z"
         id="path52" />
    </clipPath>
    <clipPath
       id="b9e0a22b60">
      <path
         d="M457 183 498 183 498 192 457 192Z"
         id="path53" />
    </clipPath>
    <clipPath
       id="2117aac0ae">
      <path
         d="M502.066 17.0547 687.719 119.926 578.305 317.387 392.648 214.516Z"
         id="path54" />
    </clipPath>
    <clipPath
       id="e091cd8479">
      <path
         d="M502.066 17.0547 687.719 119.926 578.305 317.387 392.648 214.516Z"
         id="path55" />
    </clipPath>
    <clipPath
       id="d94aced21c">
      <path
         d="M502.066 17.0547 687.719 119.926 578.305 317.387 392.648 214.516Z"
         id="path56" />
    </clipPath>
    <clipPath
       id="40820b2e7a">
      <path
         d="M479 211 498 211 498 220 479 220Z"
         id="path57" />
    </clipPath>
    <clipPath
       id="e56a9548e8">
      <path
         d="M502.066 17.0547 687.719 119.926 578.305 317.387 392.648 214.516Z"
         id="path58" />
    </clipPath>
    <clipPath
       id="10f10b98ca">
      <path
         d="M502.066 17.0547 687.719 119.926 578.305 317.387 392.648 214.516Z"
         id="path59" />
    </clipPath>
    <clipPath
       id="29c6d6927f">
      <path
         d="M502.066 17.0547 687.719 119.926 578.305 317.387 392.648 214.516Z"
         id="path60" />
    </clipPath>
    <clipPath
       id="8e16a196d6">
      <path
         d="M481 240 508 240 508 257 481 257Z"
         id="path61" />
    </clipPath>
    <clipPath
       id="2e48417e9d">
      <path
         d="M502.066 17.0547 687.719 119.926 578.305 317.387 392.648 214.516Z"
         id="path62" />
    </clipPath>
    <clipPath
       id="9b211551dc">
      <path
         d="M502.066 17.0547 687.719 119.926 578.305 317.387 392.648 214.516Z"
         id="path63" />
    </clipPath>
    <clipPath
       id="7ee88968b4">
      <path
         d="M502.066 17.0547 687.719 119.926 578.305 317.387 392.648 214.516Z"
         id="path64" />
    </clipPath>
    <clipPath
       id="471784a9f2">
      <path
         d="M515 257 526 257 526 276 515 276Z"
         id="path65" />
    </clipPath>
    <clipPath
       id="b5234c0d88">
      <path
         d="M502.066 17.0547 687.719 119.926 578.305 317.387 392.648 214.516Z"
         id="path66" />
    </clipPath>
    <clipPath
       id="e3c133f238">
      <path
         d="M502.066 17.0547 687.719 119.926 578.305 317.387 392.648 214.516Z"
         id="path67" />
    </clipPath>
    <clipPath
       id="b998106356">
      <path
         d="M502.066 17.0547 687.719 119.926 578.305 317.387 392.648 214.516Z"
         id="path68" />
    </clipPath>
    <clipPath
       id="581450619a">
      <path
         d="M542 262 548 262 548 297 542 297Z"
         id="path69" />
    </clipPath>
    <clipPath
       id="32d16d5e47">
      <path
         d="M502.066 17.0547 687.719 119.926 578.305 317.387 392.648 214.516Z"
         id="path70" />
    </clipPath>
    <clipPath
       id="b617cf7f80">
      <path
         d="M502.066 17.0547 687.719 119.926 578.305 317.387 392.648 214.516Z"
         id="path71" />
    </clipPath>
    <clipPath
       id="76264f3f64">
      <path
         d="M502.066 17.0547 687.719 119.926 578.305 317.387 392.648 214.516Z"
         id="path72" />
    </clipPath>
    <clipPath
       id="973afc6aaf">
      <path
         d="M563 259 574 259 574 275 563 275Z"
         id="path73" />
    </clipPath>
    <clipPath
       id="b4f920015a">
      <path
         d="M502.066 17.0547 687.719 119.926 578.305 317.387 392.648 214.516Z"
         id="path74" />
    </clipPath>
    <clipPath
       id="d2251f60da">
      <path
         d="M502.066 17.0547 687.719 119.926 578.305 317.387 392.648 214.516Z"
         id="path75" />
    </clipPath>
    <clipPath
       id="8447682d82">
      <path
         d="M502.066 17.0547 687.719 119.926 578.305 317.387 392.648 214.516Z"
         id="path76" />
    </clipPath>
    <clipPath
       id="8d7c22bc09">
      <path
         d="M575 237 614 237 614 253 575 253Z"
         id="path77" />
    </clipPath>
    <clipPath
       id="9eae1f4049">
      <path
         d="M502.066 17.0547 687.719 119.926 578.305 317.387 392.648 214.516Z"
         id="path78" />
    </clipPath>
    <clipPath
       id="7969fcddcd">
      <path
         d="M502.066 17.0547 687.719 119.926 578.305 317.387 392.648 214.516Z"
         id="path79" />
    </clipPath>
    <clipPath
       id="f362815c2f">
      <path
         d="M502.066 17.0547 687.719 119.926 578.305 317.387 392.648 214.516Z"
         id="path80" />
    </clipPath>
    <clipPath
       id="b2c45fa514">
      <path
         d="M578 214 607 214 607 222 578 222Z"
         id="path81" />
    </clipPath>
    <clipPath
       id="a9d3e322b0">
      <path
         d="M502.066 17.0547 687.719 119.926 578.305 317.387 392.648 214.516Z"
         id="path82" />
    </clipPath>
    <clipPath
       id="1bcf59df92">
      <path
         d="M502.066 17.0547 687.719 119.926 578.305 317.387 392.648 214.516Z"
         id="path83" />
    </clipPath>
    <clipPath
       id="175a0a69d0">
      <path
         d="M502.066 17.0547 687.719 119.926 578.305 317.387 392.648 214.516Z"
         id="path84" />
    </clipPath>
    <clipPath
       id="e6365d10ba">
      <path
         d="M557 107 565 107 565 121 557 121Z"
         id="path85" />
    </clipPath>
    <clipPath
       id="27749b2e3e">
      <path
         d="M502.066 17.0547 687.719 119.926 578.305 317.387 392.648 214.516Z"
         id="path86" />
    </clipPath>
    <clipPath
       id="a7c45fd481">
      <path
         d="M502.066 17.0547 687.719 119.926 578.305 317.387 392.648 214.516Z"
         id="path87" />
    </clipPath>
    <clipPath
       id="d24cfc4a75">
      <path
         d="M502.066 17.0547 687.719 119.926 578.305 317.387 392.648 214.516Z"
         id="path88" />
    </clipPath>
    <clipPath
       id="a585cd1232">
      <path
         d="M504 181 522 181 522 198 504 198Z"
         id="path89" />
    </clipPath>
    <clipPath
       id="bfd4181539">
      <path
         d="M502.066 17.0547 687.719 119.926 578.305 317.387 392.648 214.516Z"
         id="path90" />
    </clipPath>
    <clipPath
       id="46a76b6bce">
      <path
         d="M502.066 17.0547 687.719 119.926 578.305 317.387 392.648 214.516Z"
         id="path91" />
    </clipPath>
    <clipPath
       id="80ccdf785c">
      <path
         d="M502.066 17.0547 687.719 119.926 578.305 317.387 392.648 214.516Z"
         id="path92" />
    </clipPath>
    <clipPath
       id="53b6d5c5f6">
      <path
         d="M549 152 567 152 567 170 549 170Z"
         id="path93" />
    </clipPath>
    <clipPath
       id="e15e1ffac5">
      <path
         d="M502.066 17.0547 687.719 119.926 578.305 317.387 392.648 214.516Z"
         id="path94" />
    </clipPath>
    <clipPath
       id="6be7244941">
      <path
         d="M502.066 17.0547 687.719 119.926 578.305 317.387 392.648 214.516Z"
         id="path95" />
    </clipPath>
    <clipPath
       id="71bfc89b85">
      <path
         d="M502.066 17.0547 687.719 119.926 578.305 317.387 392.648 214.516Z"
         id="path96" />
    </clipPath>
    <clipPath
       id="c034896b03">
      <path
         d="M547 230 564 230 564 247 547 247Z"
         id="path97" />
    </clipPath>
    <clipPath
       id="11eceaae0b">
      <path
         d="M502.066 17.0547 687.719 119.926 578.305 317.387 392.648 214.516Z"
         id="path98" />
    </clipPath>
    <clipPath
       id="ddb37e92a1">
      <path
         d="M502.066 17.0547 687.719 119.926 578.305 317.387 392.648 214.516Z"
         id="path99" />
    </clipPath>
    <clipPath
       id="e51a84c94d">
      <path
         d="M502.066 17.0547 687.719 119.926 578.305 317.387 392.648 214.516Z"
         id="path100" />
    </clipPath>
    <clipPath
       id="dd603ea0f5">
      <path
         d="M508 88 521 88 521 101 508 101Z"
         id="path101" />
    </clipPath>
    <clipPath
       id="21d64c2325">
      <path
         d="M502.066 17.0547 687.719 119.926 578.305 317.387 392.648 214.516Z"
         id="path102" />
    </clipPath>
    <clipPath
       id="cd1c1d3f8a">
      <path
         d="M502.066 17.0547 687.719 119.926 578.305 317.387 392.648 214.516Z"
         id="path103" />
    </clipPath>
    <clipPath
       id="57f7db8e9d">
      <path
         d="M502.066 17.0547 687.719 119.926 578.305 317.387 392.648 214.516Z"
         id="path104" />
    </clipPath>
    <clipPath
       id="eaa96a9aa5">
      <path
         d="M546 94 559 94 559 107 546 107Z"
         id="path105" />
    </clipPath>
    <clipPath
       id="8d1e116855">
      <path
         d="M502.066 17.0547 687.719 119.926 578.305 317.387 392.648 214.516Z"
         id="path106" />
    </clipPath>
    <clipPath
       id="b218d4ed5f">
      <path
         d="M502.066 17.0547 687.719 119.926 578.305 317.387 392.648 214.516Z"
         id="path107" />
    </clipPath>
    <clipPath
       id="437f984ced">
      <path
         d="M502.066 17.0547 687.719 119.926 578.305 317.387 392.648 214.516Z"
         id="path108" />
    </clipPath>
    <clipPath
       id="ab64d732c5">
      <path
         d="M505 153 514 153 514 162 505 162Z"
         id="path109" />
    </clipPath>
    <clipPath
       id="d66593eda1">
      <path
         d="M502.066 17.0547 687.719 119.926 578.305 317.387 392.648 214.516Z"
         id="path110" />
    </clipPath>
    <clipPath
       id="73d88a9fd3">
      <path
         d="M502.066 17.0547 687.719 119.926 578.305 317.387 392.648 214.516Z"
         id="path111" />
    </clipPath>
    <clipPath
       id="15d8348b42">
      <path
         d="M502.066 17.0547 687.719 119.926 578.305 317.387 392.648 214.516Z"
         id="path112" />
    </clipPath>
    <clipPath
       id="791d226a8a">
      <path
         d="M535 209 548 209 548 222 535 222Z"
         id="path113" />
    </clipPath>
    <clipPath
       id="1ffb374a91">
      <path
         d="M502.066 17.0547 687.719 119.926 578.305 317.387 392.648 214.516Z"
         id="path114" />
    </clipPath>
    <clipPath
       id="581f539a99">
      <path
         d="M502.066 17.0547 687.719 119.926 578.305 317.387 392.648 214.516Z"
         id="path115" />
    </clipPath>
    <clipPath
       id="7a89d04d32">
      <path
         d="M502.066 17.0547 687.719 119.926 578.305 317.387 392.648 214.516Z"
         id="path116" />
    </clipPath>
    <clipPath
       id="ad1d6e62b6">
      <path
         d="M521 241 528 241 528 248 521 248Z"
         id="path117" />
    </clipPath>
    <clipPath
       id="4c0b9964d6">
      <path
         d="M502.066 17.0547 687.719 119.926 578.305 317.387 392.648 214.516Z"
         id="path118" />
    </clipPath>
    <clipPath
       id="5ea1f3e0a1">
      <path
         d="M502.066 17.0547 687.719 119.926 578.305 317.387 392.648 214.516Z"
         id="path119" />
    </clipPath>
    <clipPath
       id="c32843f13c">
      <path
         d="M502.066 17.0547 687.719 119.926 578.305 317.387 392.648 214.516Z"
         id="path120" />
    </clipPath>
    <clipPath
       id="6f893b9966">
      <path
         d="M553 184 561 184 561 192 553 192Z"
         id="path121" />
    </clipPath>
    <clipPath
       id="2a9a4870de">
      <path
         d="M502.066 17.0547 687.719 119.926 578.305 317.387 392.648 214.516Z"
         id="path122" />
    </clipPath>
    <clipPath
       id="2afe6af8ea">
      <path
         d="M502.066 17.0547 687.719 119.926 578.305 317.387 392.648 214.516Z"
         id="path123" />
    </clipPath>
    <clipPath
       id="c8d63866d6">
      <path
         d="M502.066 17.0547 687.719 119.926 578.305 317.387 392.648 214.516Z"
         id="path124" />
    </clipPath>
    <clipPath
       id="c5f252ef1f">
      <path
         d="M519 110 526 110 526 117 519 117Z"
         id="path125" />
    </clipPath>
    <clipPath
       id="819799d155">
      <path
         d="M502.066 17.0547 687.719 119.926 578.305 317.387 392.648 214.516Z"
         id="path126" />
    </clipPath>
    <clipPath
       id="5ff85dabc3">
      <path
         d="M502.066 17.0547 687.719 119.926 578.305 317.387 392.648 214.516Z"
         id="path127" />
    </clipPath>
    <clipPath
       id="02590df322">
      <path
         d="M502.066 17.0547 687.719 119.926 578.305 317.387 392.648 214.516Z"
         id="path128" />
    </clipPath>
    <clipPath
       id="3d1ac82256">
      <path
         d="M554 136 561 136 561 143 554 143Z"
         id="path129" />
    </clipPath>
    <clipPath
       id="e9acc6c97c">
      <path
         d="M502.066 17.0547 687.719 119.926 578.305 317.387 392.648 214.516Z"
         id="path130" />
    </clipPath>
    <clipPath
       id="c23c7ecf1b">
      <path
         d="M502.066 17.0547 687.719 119.926 578.305 317.387 392.648 214.516Z"
         id="path131" />
    </clipPath>
    <clipPath
       id="10076aaa0f">
      <path
         d="M502.066 17.0547 687.719 119.926 578.305 317.387 392.648 214.516Z"
         id="path132" />
    </clipPath>
    <clipPath
       id="1708568a6f">
      <path
         d="M527 177 534 177 534 185 527 185Z"
         id="path133" />
    </clipPath>
    <clipPath
       id="3b73fa2fa0">
      <path
         d="M502.066 17.0547 687.719 119.926 578.305 317.387 392.648 214.516Z"
         id="path134" />
    </clipPath>
    <clipPath
       id="5d45f4f6a1">
      <path
         d="M502.066 17.0547 687.719 119.926 578.305 317.387 392.648 214.516Z"
         id="path135" />
    </clipPath>
    <clipPath
       id="18ad69be48">
      <path
         d="M502.066 17.0547 687.719 119.926 578.305 317.387 392.648 214.516Z"
         id="path136" />
    </clipPath>
    <clipPath
       id="fb6d70f750">
      <path
         d="M513 214 520 214 520 222 513 222Z"
         id="path137" />
    </clipPath>
    <clipPath
       id="d1b7aa6906">
      <path
         d="M502.066 17.0547 687.719 119.926 578.305 317.387 392.648 214.516Z"
         id="path138" />
    </clipPath>
    <clipPath
       id="b7ec6a4f00">
      <path
         d="M502.066 17.0547 687.719 119.926 578.305 317.387 392.648 214.516Z"
         id="path139" />
    </clipPath>
    <clipPath
       id="1e8430029b">
      <path
         d="M502.066 17.0547 687.719 119.926 578.305 317.387 392.648 214.516Z"
         id="path140" />
    </clipPath>
    <clipPath
       id="2b6a18ae3e">
      <path
         d="M520 77 559 77 559 102 520 102Z"
         id="path141" />
    </clipPath>
    <clipPath
       id="77777f17ba">
      <path
         d="M502.066 17.0547 687.719 119.926 578.305 317.387 392.648 214.516Z"
         id="path142" />
    </clipPath>
    <clipPath
       id="1c049f85ff">
      <path
         d="M502.066 17.0547 687.719 119.926 578.305 317.387 392.648 214.516Z"
         id="path143" />
    </clipPath>
    <clipPath
       id="cd412d3005">
      <path
         d="M502.066 17.0547 687.719 119.926 578.305 317.387 392.648 214.516Z"
         id="path144" />
    </clipPath>
    <clipPath
       id="e36ccfbcd7">
      <path
         d="M560 184 573 184 573 246 560 246Z"
         id="path145" />
    </clipPath>
    <clipPath
       id="93776d0c80">
      <path
         d="M502.066 17.0547 687.719 119.926 578.305 317.387 392.648 214.516Z"
         id="path146" />
    </clipPath>
    <clipPath
       id="bbedfec39c">
      <path
         d="M502.066 17.0547 687.719 119.926 578.305 317.387 392.648 214.516Z"
         id="path147" />
    </clipPath>
    <clipPath
       id="ae635d2452">
      <path
         d="M502.066 17.0547 687.719 119.926 578.305 317.387 392.648 214.516Z"
         id="path148" />
    </clipPath>
    <clipPath
       id="d385a7a6e4">
      <path
         d="M506 126 521 126 521 141 506 141Z"
         id="path149" />
    </clipPath>
    <clipPath
       id="b3084d342b">
      <path
         d="M502.066 17.0547 687.719 119.926 578.305 317.387 392.648 214.516Z"
         id="path150" />
    </clipPath>
    <clipPath
       id="c1c196edf6">
      <path
         d="M502.066 17.0547 687.719 119.926 578.305 317.387 392.648 214.516Z"
         id="path151" />
    </clipPath>
    <clipPath
       id="6bc7977b77">
      <path
         d="M502.066 17.0547 687.719 119.926 578.305 317.387 392.648 214.516Z"
         id="path152" />
    </clipPath>
    <clipPath
       id="72f8336798">
      <path
         d="M542 128 557 128 557 142 542 142Z"
         id="path153" />
    </clipPath>
    <clipPath
       id="7bd3c8e880">
      <path
         d="M502.066 17.0547 687.719 119.926 578.305 317.387 392.648 214.516Z"
         id="path154" />
    </clipPath>
    <clipPath
       id="74f166be28">
      <path
         d="M502.066 17.0547 687.719 119.926 578.305 317.387 392.648 214.516Z"
         id="path155" />
    </clipPath>
    <clipPath
       id="9696ad6e3d">
      <path
         d="M502.066 17.0547 687.719 119.926 578.305 317.387 392.648 214.516Z"
         id="path156" />
    </clipPath>
    <clipPath
       id="90dbaa27f0">
      <path
         d="M524 137 539 137 539 149 524 149Z"
         id="path157" />
    </clipPath>
    <clipPath
       id="914ffa3482">
      <path
         d="M502.066 17.0547 687.719 119.926 578.305 317.387 392.648 214.516Z"
         id="path158" />
    </clipPath>
    <clipPath
       id="ce3d64cb49">
      <path
         d="M502.066 17.0547 687.719 119.926 578.305 317.387 392.648 214.516Z"
         id="path159" />
    </clipPath>
    <clipPath
       id="48d0b00af6">
      <path
         d="M502.066 17.0547 687.719 119.926 578.305 317.387 392.648 214.516Z"
         id="path160" />
    </clipPath>
    <clipPath
       id="98a90384af">
      <path
         d="M481.285 119.801 586.285 119.801 586.285 143.781 481.285 143.781Z"
         id="path161" />
    </clipPath>
  </defs>
  <g
     inkscape:label="Warstwa 1"
     inkscape:groupmode="layer"
     id="layer1">
    <g
       id="8a3f0f0544"
       transform="matrix(0.26458333,0,0,0.26458333,-53.710417,108.74375)">
      <g
         clip-path="url(#8fe97298d8)"
         id="g165"
         transform="matrix(3.3642056,0,0,3.3642056,-1242.6109,-415.17301)">
        <g
           clip-path="url(#3223ef0d77)"
           id="g164">
          <g
             clip-path="url(#0ae6e81923)"
             id="g163">
            <g
               clip-path="url(#036adfedf3)"
               id="g162">
              <path
                 d="m 499.02,87.4336 c 1.539,-5.168 4.253,-10.0469 8.433,-13.4063 5.731,-4.6093 13.598,-5.8671 20.899,-4.9375 15.996,2.0313 29.589,13.6875 37.515,27.7227 7.926,14.0395 10.965,30.2695 12.813,46.2695 3.906,33.762 3.031,68.25 -4.321,101.371 -1.121,2.977 -2.504,5.832 -4.293,8.473 -4.128,6.097 -10.73,10.898 -18.089,11.262 -7.532,0.371 -18.004,-1.641 -24.915,-4.668 -9.968,-4.368 -16.531,-10.512 -21.39,-19.383 -8.66,-15.809 -9.391,-36.879 -9.262,-55.075 0.18,-25.71 0.363,-51.421 0.543,-77.132 0.039,-6.129 0.094,-12.3167 1.477,-18.2855 0.172,-0.7422 0.371,-1.4843 0.59,-2.2187 z"
                 fill="#60d8c1"
                 id="path162" />
            </g>
          </g>
        </g>
      </g>
      <g
         clip-path="url(#6ac7f62f85)"
         id="g169"
         transform="matrix(3.3642056,0,0,3.3642056,-1242.6109,-415.17301)">
        <g
           clip-path="url(#7cec70c79d)"
           id="g168">
          <g
             clip-path="url(#926f413469)"
             id="g167">
            <g
               clip-path="url(#dc3c4b416a)"
               id="g166">
              <path
                 d="m 501.336,87.9922 c 2.289,-7.3438 7.004,-13.4297 14.57,-15.6953 6.586,-1.9688 13.739,-1.1836 20.16,1.0547 13.989,4.8711 24.411,16.9257 30.5,30.0394 6.325,13.593 8.594,28.746 10.149,43.515 1.629,15.512 2.238,31.141 1.66,46.731 -0.574,15.5 -2.344,30.949 -5.457,46.144 -1.508,7.336 -5.234,14.407 -11.606,18.684 -5.843,3.918 -12.476,3.781 -19.191,2.742 -13.98,-2.16 -26.605,-8.738 -33.832,-21.269 -7.043,-12.215 -8.766,-26.844 -9.312,-40.672 -0.641,-16.012 -0.063,-32.102 0.054,-48.114 0.063,-8.625 0.125,-17.246 0.184,-25.871 0.055,-8.621 -0.125,-16.879 0.285,-25.2927 0.195,-4.0703 0.715,-8.0781 1.84,-12 0.844,-2.9375 -3.785,-4.0625 -4.629,-1.1172 -2.402,8.3633 -2.106,17.1989 -2.168,25.8199 -0.066,9.407 -0.133,18.813 -0.199,28.219 -0.125,17.945 -0.625,35.938 -0.262,53.887 0.301,14.875 1.707,30.375 8.23,43.984 6.528,13.61 18.954,22.719 33.786,26.114 6.632,1.519 14.402,2.789 21.058,0.796 6.938,-2.078 12.535,-7.3 16.153,-13.441 4.304,-7.293 5.277,-15.93 6.558,-24.176 1.281,-8.242 2.192,-16.547 2.766,-24.867 1.16,-16.82 0.898,-33.734 -0.582,-50.531 -1.41,-16.02 -3.422,-32.469 -9.539,-47.473 -5.797,-14.2342 -15.684,-27.2811 -29.754,-34.1639 -12.789,-6.2539 -30.852,-7.3321 -40.528,4.9257 -2.566,3.254 -4.285,6.9688 -5.515,10.9063 -0.91,2.9219 3.723,4.0351 4.629,1.1211 z"
                 fill="#3eaf9c"
                 id="path165" />
            </g>
          </g>
        </g>
      </g>
      <g
         clip-path="url(#e468b98765)"
         id="g173"
         transform="matrix(3.3642056,0,0,3.3642056,-1242.6109,-415.17301)">
        <g
           clip-path="url(#c79fe58723)"
           id="g172">
          <g
             clip-path="url(#1441f683c7)"
             id="g171">
            <g
               clip-path="url(#a482986bb3)"
               id="g170">
              <path
                 d="m 572.422,109.059 c 8.457,-1.286 17.031,-1.653 25.57,-1.215 3.063,0.16 2.942,-4.598 -0.113,-4.754 -8.977,-0.461 -17.899,0.043 -26.777,1.394 -3.024,0.461 -1.676,5.028 1.316,4.575 z"
                 fill="#3eaf9c"
                 id="path169" />
            </g>
          </g>
        </g>
      </g>
      <g
         clip-path="url(#f5e372b986)"
         id="g177"
         transform="matrix(3.3642056,0,0,3.3642056,-1242.6109,-415.17301)">
        <g
           clip-path="url(#2330a351f3)"
           id="g176">
          <g
             clip-path="url(#7022638a2a)"
             id="g175">
            <g
               clip-path="url(#b3985f89f5)"
               id="g174">
              <path
                 d="m 564.082,91.8477 c 4.266,-2.4141 8.66,-4.5625 13.203,-6.4102 2.809,-1.1445 1.52,-5.7227 -1.316,-4.5742 -4.918,2 -9.699,4.2773 -14.321,6.8906 -2.668,1.5117 -0.222,5.5977 2.434,4.0938 z"
                 fill="#3eaf9c"
                 id="path173" />
            </g>
          </g>
        </g>
      </g>
      <g
         clip-path="url(#11e703fa9f)"
         id="g181"
         transform="matrix(3.3642056,0,0,3.3642056,-1242.6109,-415.17301)">
        <g
           clip-path="url(#df524809c8)"
           id="g180">
          <g
             clip-path="url(#5649967147)"
             id="g179">
            <g
               clip-path="url(#40935b0402)"
               id="g178">
              <path
                 d="m 578.059,135.773 c 5.601,0.313 11.175,0.915 16.714,1.801 3.004,0.477 4.153,-4.14 1.114,-4.625 -5.949,-0.945 -11.934,-1.59 -17.946,-1.929 -3.058,-0.172 -2.937,4.585 0.118,4.753 z"
                 fill="#3eaf9c"
                 id="path177" />
            </g>
          </g>
        </g>
      </g>
      <g
         clip-path="url(#b51e329ee4)"
         id="g185"
         transform="matrix(3.3642056,0,0,3.3642056,-1242.6109,-415.17301)">
        <g
           clip-path="url(#3f490f46f6)"
           id="g184">
          <g
             clip-path="url(#1157bb859e)"
             id="g183">
            <g
               clip-path="url(#f3ebdfe89a)"
               id="g182">
              <path
                 d="m 581.414,164.406 c 9.078,2.496 18.16,4.985 27.238,7.477 2.953,0.808 4.071,-3.813 1.11,-4.621 -9.078,-2.496 -18.16,-4.985 -27.235,-7.477 -2.953,-0.808 -4.074,3.813 -1.113,4.621 z"
                 fill="#3eaf9c"
                 id="path181" />
            </g>
          </g>
        </g>
      </g>
      <g
         clip-path="url(#3dfbf36e9c)"
         id="g189"
         transform="matrix(3.3642056,0,0,3.3642056,-1242.6109,-415.17301)">
        <g
           clip-path="url(#c68ad446fd)"
           id="g188">
          <g
             clip-path="url(#4d7ff2a81b)"
             id="g187">
            <g
               clip-path="url(#8af43a013b)"
               id="g186">
              <path
                 d="m 582.559,195.137 c 4.003,0.715 8.011,1.422 12.015,2.136 3,0.532 4.145,-4.085 1.114,-4.621 -4.004,-0.714 -8.012,-1.425 -12.016,-2.136 -3,-0.536 -4.141,4.082 -1.113,4.621 z"
                 fill="#3eaf9c"
                 id="path185" />
            </g>
          </g>
        </g>
      </g>
      <g
         clip-path="url(#f347fbaa64)"
         id="g193"
         transform="matrix(3.3642056,0,0,3.3642056,-1242.6109,-415.17301)">
        <g
           clip-path="url(#e695ed8341)"
           id="g192">
          <g
             clip-path="url(#d7ca678bae)"
             id="g191">
            <g
               clip-path="url(#07174e3400)"
               id="g190">
              <path
                 d="m 547.332,73.4531 c 3.754,-7.1914 7.512,-14.3789 11.27,-21.5664 1.41,-2.707 -2.75,-5.0273 -4.168,-2.3086 -3.754,7.1875 -7.516,14.375 -11.27,21.5664 -1.414,2.7071 2.746,5.0274 4.168,2.3086 z"
                 fill="#3eaf9c"
                 id="path189" />
            </g>
          </g>
        </g>
      </g>
      <g
         clip-path="url(#17be0f83cd)"
         id="g197"
         transform="matrix(3.3642056,0,0,3.3642056,-1242.6109,-415.17301)">
        <g
           clip-path="url(#097357ed76)"
           id="g196">
          <g
             clip-path="url(#842e68f3e9)"
             id="g195">
            <g
               clip-path="url(#cde365ea44)"
               id="g194">
              <path
                 d="m 524.105,66.7617 c -0.617,-3.3398 -0.691,-6.7773 -0.222,-10.1367 0.422,-3 -4.207,-4.1602 -4.629,-1.1211 -0.59,4.2266 -0.496,8.3633 0.277,12.5625 0.551,3.0156 5.121,1.6836 4.574,-1.3047 z"
                 fill="#3eaf9c"
                 id="path193" />
            </g>
          </g>
        </g>
      </g>
      <g
         clip-path="url(#b0336500b9)"
         id="g201"
         transform="matrix(3.3642056,0,0,3.3642056,-1242.6109,-415.17301)">
        <g
           clip-path="url(#466cfc334a)"
           id="g200">
          <g
             clip-path="url(#8a66ca1dcb)"
             id="g199">
            <g
               clip-path="url(#5dfebc443c)"
               id="g198">
              <path
                 d="m 500.105,80.0625 c -7.617,-3.9609 -15.226,-7.9102 -22.843,-11.8711 -2.711,-1.4102 -5.028,2.7383 -2.301,4.1602 7.613,3.957 15.227,7.9101 22.84,11.8672 2.715,1.4101 5.031,-2.7383 2.304,-4.1563 z"
                 fill="#3eaf9c"
                 id="path197" />
            </g>
          </g>
        </g>
      </g>
      <g
         clip-path="url(#c4d47e6a44)"
         id="g205"
         transform="matrix(3.3642056,0,0,3.3642056,-1242.6109,-415.17301)">
        <g
           clip-path="url(#879d97d07e)"
           id="g204">
          <g
             clip-path="url(#e0d0746d71)"
             id="g203">
            <g
               clip-path="url(#c9f2dc9657)"
               id="g202">
              <path
                 d="m 495.617,103.605 c -4.75,-0.976 -9.508,-1.957 -14.258,-2.929 -2.992,-0.617 -4.132,4.004 -1.113,4.621 4.75,0.976 9.508,1.953 14.262,2.93 2.992,0.613 4.129,-4.004 1.109,-4.622 z"
                 fill="#3eaf9c"
                 id="path201" />
            </g>
          </g>
        </g>
      </g>
      <g
         clip-path="url(#8ae6432746)"
         id="g209"
         transform="matrix(3.3642056,0,0,3.3642056,-1242.6109,-415.17301)">
        <g
           clip-path="url(#1f25233946)"
           id="g208">
          <g
             clip-path="url(#9f42a516fe)"
             id="g207">
            <g
               clip-path="url(#6f1df1042f)"
               id="g206">
              <path
                 d="m 495.184,125.926 c -8.942,0.851 -17.879,1.703 -26.821,2.558 -3.027,0.289 -2.941,5.047 0.117,4.754 8.942,-0.855 17.875,-1.707 26.817,-2.562 3.031,-0.285 2.945,-5.047 -0.113,-4.75 z"
                 fill="#3eaf9c"
                 id="path205" />
            </g>
          </g>
        </g>
      </g>
      <g
         clip-path="url(#03a7ffc980)"
         id="g213"
         transform="matrix(3.3642056,0,0,3.3642056,-1242.6109,-415.17301)">
        <g
           clip-path="url(#22f6b707bd)"
           id="g212">
          <g
             clip-path="url(#fbc838571f)"
             id="g211">
            <g
               clip-path="url(#b2cb7df6b1)"
               id="g210">
              <path
                 d="m 495,158.805 c -4.32,0.547 -8.641,1.093 -12.957,1.64 -3.008,0.383 -2.93,5.141 0.117,4.754 4.317,-0.547 8.637,-1.094 12.953,-1.64 3.012,-0.379 2.93,-5.141 -0.113,-4.754 z"
                 fill="#3eaf9c"
                 id="path209" />
            </g>
          </g>
        </g>
      </g>
      <g
         clip-path="url(#b9e0a22b60)"
         id="g217"
         transform="matrix(3.3642056,0,0,3.3642056,-1242.6109,-415.17301)">
        <g
           clip-path="url(#2117aac0ae)"
           id="g216">
          <g
             clip-path="url(#e091cd8479)"
             id="g215">
            <g
               clip-path="url(#d94aced21c)"
               id="g214">
              <path
                 d="m 495.477,186.773 c -11.629,-0.929 -23.235,-2.066 -34.821,-3.425 -3,-0.356 -4.16,4.261 -1.109,4.621 11.992,1.406 24.008,2.597 36.047,3.562 3.047,0.246 2.918,-4.511 -0.117,-4.754 z"
                 fill="#3eaf9c"
                 id="path213" />
            </g>
          </g>
        </g>
      </g>
      <g
         clip-path="url(#40820b2e7a)"
         id="g221"
         transform="matrix(3.3642056,0,0,3.3642056,-1242.6109,-415.17301)">
        <g
           clip-path="url(#e56a9548e8)"
           id="g220">
          <g
             clip-path="url(#10f10b98ca)"
             id="g219">
            <g
               clip-path="url(#29c6d6927f)"
               id="g218">
              <path
                 d="m 494.934,211.695 c -4.45,1.567 -9,2.77 -13.645,3.606 -3.016,0.547 -1.672,5.109 1.316,4.57 4.645,-0.836 9.196,-2.039 13.645,-3.601 2.883,-1.016 1.578,-5.594 -1.316,-4.575 z"
                 fill="#3eaf9c"
                 id="path217" />
            </g>
          </g>
        </g>
      </g>
      <g
         clip-path="url(#8e16a196d6)"
         id="g225"
         transform="matrix(3.3642056,0,0,3.3642056,-1242.6109,-415.17301)">
        <g
           clip-path="url(#2e48417e9d)"
           id="g224">
          <g
             clip-path="url(#9b211551dc)"
             id="g223">
            <g
               clip-path="url(#7ee88968b4)"
               id="g222">
              <path
                 d="m 503.836,240.613 -21.152,11.946 c -2.672,1.507 -0.231,5.593 2.429,4.089 l 21.153,-11.941 c 2.672,-1.512 0.23,-5.598 -2.43,-4.094 z"
                 fill="#3eaf9c"
                 id="path221" />
            </g>
          </g>
        </g>
      </g>
      <g
         clip-path="url(#471784a9f2)"
         id="g229"
         transform="matrix(3.3642056,0,0,3.3642056,-1242.6109,-415.17301)">
        <g
           clip-path="url(#b5234c0d88)"
           id="g228">
          <g
             clip-path="url(#e3c133f238)"
             id="g227">
            <g
               clip-path="url(#b998106356)"
               id="g226">
              <path
                 d="m 521.582,258.484 c -1.949,4.457 -3.894,8.911 -5.84,13.368 -1.215,2.781 2.938,5.113 4.164,2.308 1.949,-4.457 3.895,-8.91 5.84,-13.367 1.215,-2.781 -2.937,-5.113 -4.164,-2.309 z"
                 fill="#3eaf9c"
                 id="path225" />
            </g>
          </g>
        </g>
      </g>
      <g
         clip-path="url(#581450619a)"
         id="g233"
         transform="matrix(3.3642056,0,0,3.3642056,-1242.6109,-415.17301)">
        <g
           clip-path="url(#32d16d5e47)"
           id="g232">
          <g
             clip-path="url(#b617cf7f80)"
             id="g231">
            <g
               clip-path="url(#76264f3f64)"
               id="g230">
              <path
                 d="m 542.18,265.148 c 0.746,9.778 0.929,19.571 0.55,29.368 -0.121,3.054 4.641,2.945 4.758,-0.11 0.379,-9.793 0.196,-19.59 -0.55,-29.363 -0.231,-3.043 -4.993,-2.961 -4.758,0.105 z"
                 fill="#3eaf9c"
                 id="path229" />
            </g>
          </g>
        </g>
      </g>
      <g
         clip-path="url(#973afc6aaf)"
         id="g237"
         transform="matrix(3.3642056,0,0,3.3642056,-1242.6109,-415.17301)">
        <g
           clip-path="url(#b4f920015a)"
           id="g236">
          <g
             clip-path="url(#d2251f60da)"
             id="g235">
            <g
               clip-path="url(#8447682d82)"
               id="g234">
              <path
                 d="m 563.527,263.344 c 1.825,3.277 3.657,6.558 5.485,9.836 1.496,2.683 5.582,0.246 4.09,-2.422 -1.825,-3.278 -3.657,-6.559 -5.485,-9.836 -1.496,-2.684 -5.582,-0.246 -4.09,2.422 z"
                 fill="#3eaf9c"
                 id="path233" />
            </g>
          </g>
        </g>
      </g>
      <g
         clip-path="url(#8d7c22bc09)"
         id="g241"
         transform="matrix(3.3642056,0,0,3.3642056,-1242.6109,-415.17301)">
        <g
           clip-path="url(#9eae1f4049)"
           id="g240">
          <g
             clip-path="url(#7969fcddcd)"
             id="g239">
            <g
               clip-path="url(#f362815c2f)"
               id="g238">
              <path
                 d="m 577.363,242.086 c 11.274,3.035 22.395,6.59 33.344,10.652 2.867,1.059 3.965,-3.566 1.113,-4.625 -10.949,-4.058 -22.07,-7.613 -33.343,-10.648 -2.957,-0.797 -4.082,3.824 -1.114,4.621 z"
                 fill="#3eaf9c"
                 id="path237" />
            </g>
          </g>
        </g>
      </g>
      <g
         clip-path="url(#b2c45fa514)"
         id="g245"
         transform="matrix(3.3642056,0,0,3.3642056,-1242.6109,-415.17301)">
        <g
           clip-path="url(#a9d3e322b0)"
           id="g244">
          <g
             clip-path="url(#1bcf59df92)"
             id="g243">
            <g
               clip-path="url(#175a0a69d0)"
               id="g242">
              <path
                 d="m 580.641,219.395 c 7.597,0.007 15.152,0.644 22.636,1.937 3.004,0.516 4.145,-4.102 1.114,-4.621 -7.891,-1.359 -15.868,-2.063 -23.868,-2.07 -3.062,-0.004 -2.953,4.754 0.118,4.754 z"
                 fill="#3eaf9c"
                 id="path241" />
            </g>
          </g>
        </g>
      </g>
      <g
         clip-path="url(#e6365d10ba)"
         id="g249"
         transform="matrix(3.3642056,0,0,3.3642056,-1242.6109,-415.17301)">
        <g
           clip-path="url(#27749b2e3e)"
           id="g248">
          <g
             clip-path="url(#a7c45fd481)"
             id="g247">
            <g
               clip-path="url(#d24cfc4a75)"
               id="g246">
              <path
                 d="m 558.129,111.387 c 1.074,2.187 1.648,4.566 1.762,6.996 0.136,3.051 4.898,2.965 4.757,-0.106 -0.152,-3.273 -0.984,-6.375 -2.425,-9.316 -0.567,-1.156 -2.223,-1.449 -3.262,-0.836 -1.18,0.699 -1.399,2.102 -0.828,3.258 z"
                 fill="#9cf2e2"
                 id="path245" />
            </g>
          </g>
        </g>
      </g>
      <g
         clip-path="url(#a585cd1232)"
         id="g253"
         transform="matrix(3.3642056,0,0,3.3642056,-1242.6109,-415.17301)">
        <g
           clip-path="url(#bfd4181539)"
           id="g252">
          <g
             clip-path="url(#46a76b6bce)"
             id="g251">
            <g
               clip-path="url(#80ccdf785c)"
               id="g250">
              <path
                 d="m 520.559,193.605 c -0.262,0.477 -0.571,0.922 -0.922,1.336 -0.352,0.418 -0.742,0.793 -1.168,1.133 -0.426,0.34 -0.879,0.633 -1.364,0.879 -0.484,0.25 -0.988,0.449 -1.511,0.598 -0.524,0.152 -1.059,0.25 -1.602,0.293 -0.543,0.043 -1.086,0.035 -1.625,-0.028 -0.543,-0.062 -1.074,-0.175 -1.59,-0.339 -0.519,-0.168 -1.019,-0.383 -1.496,-0.649 -0.476,-0.262 -0.922,-0.57 -1.34,-0.922 -0.414,-0.351 -0.793,-0.742 -1.132,-1.168 -0.34,-0.426 -0.633,-0.883 -0.883,-1.367 -0.25,-0.484 -0.453,-0.984 -0.602,-1.508 -0.152,-0.523 -0.25,-1.058 -0.297,-1.601 -0.047,-0.543 -0.039,-1.082 0.024,-1.625 0.062,-0.539 0.176,-1.071 0.34,-1.586 0.168,-0.52 0.379,-1.016 0.644,-1.492 0.262,-0.477 0.57,-0.922 0.922,-1.336 0.352,-0.414 0.742,-0.793 1.168,-1.129 0.426,-0.34 0.879,-0.633 1.363,-0.883 0.485,-0.25 0.989,-0.449 1.512,-0.598 0.523,-0.148 1.059,-0.246 1.602,-0.289 0.543,-0.047 1.086,-0.039 1.625,0.024 0.543,0.062 1.074,0.175 1.593,0.343 0.516,0.164 1.016,0.383 1.492,0.645 0.477,0.266 0.922,0.574 1.34,0.926 0.414,0.351 0.793,0.738 1.133,1.168 0.34,0.425 0.637,0.879 0.887,1.363 0.25,0.484 0.449,0.988 0.598,1.512 0.152,0.523 0.25,1.054 0.296,1.597 0.047,0.543 0.039,1.086 -0.023,1.625 -0.063,0.539 -0.176,1.071 -0.34,1.59 -0.164,0.516 -0.379,1.016 -0.644,1.488 z"
                 fill="#3eaf9c"
                 id="path249" />
            </g>
          </g>
        </g>
      </g>
      <g
         clip-path="url(#53b6d5c5f6)"
         id="g257"
         transform="matrix(3.3642056,0,0,3.3642056,-1242.6109,-415.17301)">
        <g
           clip-path="url(#e15e1ffac5)"
           id="g256">
          <g
             clip-path="url(#6be7244941)"
             id="g255">
            <g
               clip-path="url(#71bfc89b85)"
               id="g254">
              <path
                 d="m 564.992,164.926 c -0.265,0.476 -0.57,0.922 -0.922,1.336 -0.351,0.418 -0.742,0.793 -1.168,1.133 -0.425,0.335 -0.882,0.628 -1.367,0.878 -0.48,0.25 -0.984,0.45 -1.508,0.598 -0.527,0.149 -1.058,0.246 -1.601,0.293 -0.543,0.043 -1.086,0.035 -1.625,-0.027 -0.543,-0.063 -1.074,-0.176 -1.594,-0.344 -0.519,-0.164 -1.016,-0.379 -1.492,-0.645 -0.477,-0.265 -0.926,-0.57 -1.34,-0.925 -0.418,-0.352 -0.793,-0.739 -1.133,-1.164 -0.34,-0.426 -0.637,-0.883 -0.887,-1.368 -0.25,-0.484 -0.449,-0.988 -0.601,-1.511 -0.149,-0.524 -0.246,-1.055 -0.293,-1.598 -0.047,-0.543 -0.039,-1.082 0.023,-1.625 0.063,-0.539 0.176,-1.07 0.34,-1.586 0.164,-0.519 0.379,-1.016 0.645,-1.492 0.261,-0.477 0.57,-0.922 0.922,-1.336 0.351,-0.414 0.742,-0.793 1.168,-1.133 0.425,-0.336 0.879,-0.629 1.363,-0.879 0.484,-0.25 0.988,-0.449 1.512,-0.597 0.523,-0.149 1.058,-0.246 1.601,-0.293 0.543,-0.043 1.082,-0.036 1.625,0.027 0.543,0.062 1.07,0.176 1.59,0.344 0.52,0.164 1.02,0.379 1.496,0.644 0.477,0.266 0.922,0.571 1.34,0.926 0.414,0.352 0.793,0.738 1.133,1.164 0.34,0.426 0.633,0.883 0.883,1.367 0.25,0.485 0.453,0.989 0.601,1.512 0.152,0.523 0.25,1.055 0.297,1.598 0.043,0.543 0.035,1.082 -0.023,1.625 -0.063,0.539 -0.176,1.07 -0.34,1.586 -0.168,0.519 -0.383,1.015 -0.645,1.492 z"
                 fill="#3eaf9c"
                 id="path253" />
            </g>
          </g>
        </g>
      </g>
      <g
         clip-path="url(#c034896b03)"
         id="g261"
         transform="matrix(3.3642056,0,0,3.3642056,-1242.6109,-415.17301)">
        <g
           clip-path="url(#11eceaae0b)"
           id="g260">
          <g
             clip-path="url(#ddb37e92a1)"
             id="g259">
            <g
               clip-path="url(#e51a84c94d)"
               id="g258">
              <path
                 d="m 562.609,242.484 c -0.265,0.477 -0.574,0.922 -0.925,1.336 -0.352,0.414 -0.739,0.793 -1.164,1.129 -0.426,0.34 -0.883,0.633 -1.368,0.883 -0.484,0.25 -0.988,0.449 -1.511,0.598 -0.524,0.148 -1.055,0.246 -1.598,0.289 -0.543,0.047 -1.086,0.039 -1.629,-0.024 -0.539,-0.062 -1.07,-0.175 -1.59,-0.343 -0.519,-0.164 -1.015,-0.383 -1.492,-0.645 -0.477,-0.266 -0.926,-0.574 -1.34,-0.926 -0.418,-0.351 -0.797,-0.738 -1.137,-1.168 -0.339,-0.425 -0.632,-0.879 -0.882,-1.363 -0.25,-0.484 -0.45,-0.988 -0.602,-1.512 -0.148,-0.523 -0.25,-1.054 -0.293,-1.597 -0.047,-0.543 -0.039,-1.086 0.024,-1.625 0.058,-0.539 0.171,-1.071 0.339,-1.59 0.164,-0.516 0.379,-1.016 0.641,-1.488 0.266,-0.477 0.574,-0.922 0.926,-1.336 0.351,-0.418 0.738,-0.793 1.164,-1.133 0.426,-0.34 0.883,-0.633 1.367,-0.879 0.484,-0.25 0.988,-0.449 1.512,-0.598 0.523,-0.152 1.054,-0.25 1.597,-0.293 0.543,-0.043 1.086,-0.035 1.629,0.028 0.539,0.062 1.071,0.175 1.59,0.339 0.52,0.168 1.016,0.383 1.492,0.649 0.481,0.262 0.926,0.57 1.34,0.922 0.418,0.351 0.797,0.742 1.137,1.168 0.34,0.425 0.633,0.883 0.883,1.367 0.25,0.484 0.449,0.984 0.601,1.508 0.153,0.523 0.25,1.058 0.293,1.601 0.047,0.543 0.039,1.082 -0.023,1.625 -0.059,0.539 -0.172,1.071 -0.34,1.586 -0.164,0.52 -0.379,1.016 -0.641,1.492 z"
                 fill="#3eaf9c"
                 id="path257" />
            </g>
          </g>
        </g>
      </g>
      <g
         clip-path="url(#dd603ea0f5)"
         id="g265"
         transform="matrix(3.3642056,0,0,3.3642056,-1242.6109,-415.17301)">
        <g
           clip-path="url(#21d64c2325)"
           id="g264">
          <g
             clip-path="url(#cd1c1d3f8a)"
             id="g263">
            <g
               clip-path="url(#57f7db8e9d)"
               id="g262">
              <path
                 d="m 519.723,97.2422 c -0.184,0.332 -0.403,0.6484 -0.649,0.9414 -0.246,0.2891 -0.523,0.5547 -0.82,0.793 -0.301,0.2382 -0.621,0.4453 -0.961,0.6211 -0.344,0.1757 -0.695,0.3164 -1.066,0.4223 -0.368,0.105 -0.743,0.171 -1.125,0.203 -0.383,0.031 -0.766,0.027 -1.145,-0.016 -0.383,-0.047 -0.754,-0.125 -1.121,-0.2422 -0.363,-0.1171 -0.715,-0.2695 -1.051,-0.457 -0.336,-0.1836 -0.652,-0.4023 -0.945,-0.6484 -0.293,-0.25 -0.559,-0.5235 -0.797,-0.8203 -0.238,-0.3008 -0.445,-0.6211 -0.621,-0.9649 -0.176,-0.3398 -0.317,-0.6953 -0.426,-1.0625 -0.105,-0.3672 -0.172,-0.7422 -0.207,-1.125 -0.031,-0.3828 -0.027,-0.7617 0.016,-1.1445 0.043,-0.3789 0.125,-0.7539 0.242,-1.1172 0.117,-0.3633 0.265,-0.7148 0.453,-1.0508 0.184,-0.332 0.402,-0.6484 0.648,-0.9375 0.247,-0.2929 0.524,-0.5586 0.821,-0.7969 0.301,-0.2382 0.621,-0.4453 0.961,-0.621 0.343,-0.1758 0.695,-0.3165 1.066,-0.4219 0.367,-0.1055 0.742,-0.1719 1.125,-0.2031 0.383,-0.0313 0.766,-0.0274 1.145,0.0195 0.382,0.0429 0.754,0.1211 1.121,0.2383 0.363,0.1172 0.715,0.2695 1.051,0.457 0.335,0.1836 0.648,0.4023 0.941,0.6484 0.297,0.25 0.562,0.5235 0.801,0.8242 0.238,0.2969 0.445,0.6172 0.621,0.961 0.176,0.3398 0.316,0.6953 0.426,1.0625 0.105,0.3672 0.171,0.7422 0.207,1.125 0.031,0.3828 0.023,0.7617 -0.02,1.1445 -0.043,0.3789 -0.121,0.7539 -0.238,1.1172 -0.117,0.3633 -0.266,0.7148 -0.453,1.0508 z"
                 fill="#3eaf9c"
                 id="path261" />
            </g>
          </g>
        </g>
      </g>
      <g
         clip-path="url(#eaa96a9aa5)"
         id="g269"
         transform="matrix(3.3642056,0,0,3.3642056,-1242.6109,-415.17301)">
        <g
           clip-path="url(#8d1e116855)"
           id="g268">
          <g
             clip-path="url(#b218d4ed5f)"
             id="g267">
            <g
               clip-path="url(#437f984ced)"
               id="g266">
              <path
                 d="m 557.582,103.66 c -0.187,0.336 -0.402,0.649 -0.652,0.942 -0.246,0.293 -0.52,0.558 -0.821,0.796 -0.3,0.239 -0.621,0.446 -0.961,0.618 -0.339,0.175 -0.695,0.316 -1.062,0.422 -0.371,0.105 -0.746,0.175 -1.129,0.207 -0.383,0.031 -0.762,0.023 -1.145,-0.02 -0.378,-0.043 -0.753,-0.125 -1.121,-0.242 -0.363,-0.117 -0.714,-0.27 -1.05,-0.453 -0.336,-0.188 -0.649,-0.403 -0.942,-0.653 -0.293,-0.246 -0.558,-0.519 -0.801,-0.82 -0.238,-0.301 -0.445,-0.621 -0.621,-0.961 -0.175,-0.34 -0.316,-0.695 -0.422,-1.062 -0.105,-0.372 -0.175,-0.746 -0.207,-1.129 -0.035,-0.379 -0.027,-0.762 0.016,-1.141 0.043,-0.3828 0.121,-0.7538 0.238,-1.121 0.118,-0.3633 0.27,-0.7149 0.453,-1.0469 0.188,-0.3359 0.403,-0.6484 0.649,-0.9414 0.25,-0.293 0.523,-0.5586 0.824,-0.7969 0.297,-0.2383 0.617,-0.4453 0.961,-0.6211 0.34,-0.1719 0.695,-0.3125 1.063,-0.4179 0.367,-0.1055 0.746,-0.1758 1.125,-0.2071 0.382,-0.0312 0.765,-0.0234 1.148,0.0195 0.379,0.043 0.754,0.125 1.117,0.2422 0.367,0.1172 0.715,0.2657 1.051,0.4532 0.336,0.1875 0.652,0.4023 0.945,0.6523 0.293,0.2461 0.559,0.5195 0.797,0.8203 0.238,0.3008 0.449,0.6211 0.625,0.961 0.176,0.3398 0.317,0.6953 0.422,1.0625 0.106,0.3711 0.176,0.7461 0.207,1.1253 0.031,0.382 0.027,0.765 -0.016,1.144 -0.043,0.383 -0.125,0.754 -0.238,1.117 -0.117,0.368 -0.269,0.715 -0.453,1.051 z"
                 fill="#3eaf9c"
                 id="path265" />
            </g>
          </g>
        </g>
      </g>
      <g
         clip-path="url(#ab64d732c5)"
         id="g273"
         transform="matrix(3.3642056,0,0,3.3642056,-1242.6109,-415.17301)">
        <g
           clip-path="url(#d66593eda1)"
           id="g272">
          <g
             clip-path="url(#73d88a9fd3)"
             id="g271">
            <g
               clip-path="url(#15d8348b42)"
               id="g270">
              <path
                 d="m 513.055,159.074 c -0.25,0.449 -0.578,0.836 -0.981,1.156 -0.402,0.321 -0.855,0.551 -1.351,0.696 -0.496,0.14 -1,0.183 -1.512,0.125 -0.516,-0.059 -0.996,-0.215 -1.449,-0.465 -0.453,-0.25 -0.84,-0.578 -1.16,-0.981 -0.321,-0.406 -0.555,-0.855 -0.7,-1.351 -0.14,-0.496 -0.183,-1 -0.125,-1.512 0.059,-0.512 0.211,-0.996 0.461,-1.445 0.25,-0.453 0.578,-0.836 0.981,-1.16 0.402,-0.321 0.855,-0.551 1.351,-0.692 0.496,-0.14 1,-0.183 1.512,-0.125 0.516,0.059 0.996,0.215 1.449,0.465 0.453,0.25 0.84,0.578 1.16,0.981 0.321,0.402 0.555,0.855 0.7,1.351 0.14,0.492 0.183,1 0.125,1.512 -0.059,0.512 -0.211,0.992 -0.461,1.445 z"
                 fill="#3eaf9c"
                 id="path269" />
            </g>
          </g>
        </g>
      </g>
      <g
         clip-path="url(#791d226a8a)"
         id="g277"
         transform="matrix(3.3642056,0,0,3.3642056,-1242.6109,-415.17301)">
        <g
           clip-path="url(#1ffb374a91)"
           id="g276">
          <g
             clip-path="url(#581f539a99)"
             id="g275">
            <g
               clip-path="url(#7a89d04d32)"
               id="g274">
              <path
                 d="m 546.68,218.551 c -0.184,0.336 -0.403,0.648 -0.649,0.941 -0.25,0.293 -0.523,0.559 -0.82,0.797 -0.301,0.238 -0.621,0.445 -0.961,0.621 -0.344,0.172 -0.695,0.313 -1.066,0.418 -0.368,0.106 -0.743,0.176 -1.125,0.207 -0.383,0.031 -0.766,0.024 -1.145,-0.019 -0.383,-0.043 -0.754,-0.125 -1.121,-0.243 -0.367,-0.117 -0.715,-0.265 -1.051,-0.453 -0.336,-0.187 -0.652,-0.402 -0.945,-0.652 -0.293,-0.246 -0.559,-0.52 -0.797,-0.82 -0.238,-0.301 -0.445,-0.621 -0.621,-0.961 -0.176,-0.34 -0.317,-0.696 -0.426,-1.063 -0.105,-0.367 -0.176,-0.746 -0.207,-1.125 -0.031,-0.383 -0.027,-0.765 0.016,-1.144 0.043,-0.383 0.125,-0.754 0.242,-1.117 0.117,-0.368 0.266,-0.715 0.453,-1.051 0.184,-0.336 0.402,-0.649 0.648,-0.942 0.247,-0.293 0.52,-0.558 0.821,-0.797 0.301,-0.238 0.621,-0.441 0.961,-0.617 0.343,-0.176 0.695,-0.316 1.066,-0.422 0.367,-0.105 0.742,-0.171 1.125,-0.207 0.383,-0.031 0.766,-0.023 1.145,0.02 0.382,0.043 0.754,0.125 1.121,0.242 0.363,0.117 0.715,0.27 1.051,0.453 0.335,0.188 0.648,0.403 0.941,0.653 0.293,0.246 0.562,0.519 0.801,0.82 0.238,0.301 0.445,0.621 0.621,0.961 0.176,0.34 0.316,0.695 0.422,1.066 0.109,0.367 0.175,0.742 0.211,1.125 0.031,0.379 0.023,0.762 -0.02,1.141 -0.043,0.383 -0.121,0.754 -0.238,1.121 -0.117,0.363 -0.266,0.715 -0.453,1.047 z"
                 fill="#3eaf9c"
                 id="path273" />
            </g>
          </g>
        </g>
      </g>
      <g
         clip-path="url(#ad1d6e62b6)"
         id="g281"
         transform="matrix(3.3642056,0,0,3.3642056,-1242.6109,-415.17301)">
        <g
           clip-path="url(#4c0b9964d6)"
           id="g280">
          <g
             clip-path="url(#5ea1f3e0a1)"
             id="g279">
            <g
               clip-path="url(#c32843f13c)"
               id="g278">
              <path
                 d="m 527.188,246.301 c -0.204,0.367 -0.473,0.683 -0.801,0.945 -0.332,0.262 -0.699,0.453 -1.106,0.566 -0.406,0.118 -0.816,0.153 -1.238,0.102 -0.418,-0.047 -0.813,-0.172 -1.184,-0.379 -0.371,-0.203 -0.687,-0.473 -0.949,-0.801 -0.262,-0.332 -0.453,-0.699 -0.57,-1.105 -0.117,-0.406 -0.152,-0.817 -0.106,-1.238 0.051,-0.418 0.176,-0.813 0.379,-1.18 0.203,-0.371 0.473,-0.684 0.801,-0.945 0.332,-0.266 0.699,-0.454 1.106,-0.571 0.406,-0.113 0.82,-0.148 1.238,-0.101 0.422,0.047 0.816,0.176 1.183,0.379 0.371,0.207 0.688,0.472 0.95,0.804 0.265,0.328 0.453,0.7 0.57,1.102 0.117,0.406 0.152,0.82 0.105,1.238 -0.046,0.418 -0.171,0.813 -0.378,1.184 z"
                 fill="#3eaf9c"
                 id="path277" />
            </g>
          </g>
        </g>
      </g>
      <g
         clip-path="url(#6f893b9966)"
         id="g285"
         transform="matrix(3.3642056,0,0,3.3642056,-1242.6109,-415.17301)">
        <g
           clip-path="url(#2a9a4870de)"
           id="g284">
          <g
             clip-path="url(#2afe6af8ea)"
             id="g283">
            <g
               clip-path="url(#c8d63866d6)"
               id="g282">
              <path
                 d="m 559.637,189.684 c -0.203,0.367 -0.469,0.683 -0.801,0.945 -0.332,0.266 -0.699,0.453 -1.106,0.57 -0.406,0.113 -0.816,0.149 -1.238,0.102 -0.418,-0.051 -0.812,-0.176 -1.183,-0.379 -0.368,-0.207 -0.684,-0.473 -0.95,-0.805 -0.261,-0.328 -0.453,-0.699 -0.57,-1.105 -0.117,-0.403 -0.152,-0.817 -0.101,-1.235 0.046,-0.422 0.171,-0.812 0.374,-1.183 0.208,-0.367 0.473,-0.684 0.801,-0.946 0.332,-0.261 0.699,-0.453 1.106,-0.566 0.406,-0.117 0.82,-0.152 1.238,-0.105 0.422,0.05 0.816,0.175 1.184,0.382 0.371,0.203 0.687,0.473 0.949,0.801 0.265,0.332 0.453,0.699 0.57,1.106 0.117,0.406 0.152,0.816 0.106,1.234 -0.047,0.422 -0.172,0.816 -0.379,1.184 z"
                 fill="#3eaf9c"
                 id="path281" />
            </g>
          </g>
        </g>
      </g>
      <g
         clip-path="url(#c5f252ef1f)"
         id="g289"
         transform="matrix(3.3642056,0,0,3.3642056,-1242.6109,-415.17301)">
        <g
           clip-path="url(#819799d155)"
           id="g288">
          <g
             clip-path="url(#5ff85dabc3)"
             id="g287">
            <g
               clip-path="url(#02590df322)"
               id="g286">
              <path
                 d="m 525.078,115.273 c -0.207,0.372 -0.473,0.688 -0.805,0.95 -0.328,0.261 -0.699,0.449 -1.101,0.566 -0.406,0.117 -0.82,0.152 -1.238,0.102 -0.422,-0.047 -0.817,-0.172 -1.188,-0.379 -0.367,-0.203 -0.684,-0.473 -0.949,-0.801 -0.262,-0.332 -0.453,-0.699 -0.57,-1.106 -0.114,-0.406 -0.149,-0.816 -0.102,-1.238 0.047,-0.418 0.172,-0.812 0.375,-1.179 0.207,-0.372 0.473,-0.688 0.805,-0.95 0.328,-0.261 0.695,-0.449 1.101,-0.566 0.406,-0.117 0.821,-0.149 1.239,-0.102 0.421,0.047 0.816,0.176 1.183,0.379 0.371,0.207 0.688,0.473 0.953,0.805 0.262,0.328 0.453,0.695 0.567,1.101 0.117,0.407 0.152,0.821 0.105,1.239 -0.047,0.418 -0.172,0.812 -0.375,1.179 z"
                 fill="#3eaf9c"
                 id="path285" />
            </g>
          </g>
        </g>
      </g>
      <g
         clip-path="url(#3d1ac82256)"
         id="g293"
         transform="matrix(3.3642056,0,0,3.3642056,-1242.6109,-415.17301)">
        <g
           clip-path="url(#e9acc6c97c)"
           id="g292">
          <g
             clip-path="url(#c23c7ecf1b)"
             id="g291">
            <g
               clip-path="url(#10076aaa0f)"
               id="g290">
              <path
                 d="m 560.188,140.82 c -0.204,0.371 -0.473,0.688 -0.801,0.95 -0.332,0.261 -0.699,0.449 -1.106,0.566 -0.406,0.117 -0.82,0.148 -1.238,0.102 -0.422,-0.047 -0.816,-0.176 -1.184,-0.379 -0.371,-0.204 -0.687,-0.473 -0.949,-0.801 -0.265,-0.332 -0.453,-0.699 -0.57,-1.106 -0.117,-0.406 -0.152,-0.816 -0.106,-1.238 0.047,-0.418 0.172,-0.812 0.379,-1.18 0.203,-0.371 0.473,-0.687 0.801,-0.949 0.332,-0.262 0.699,-0.449 1.106,-0.566 0.406,-0.117 0.816,-0.149 1.238,-0.102 0.418,0.047 0.812,0.176 1.183,0.379 0.368,0.203 0.684,0.473 0.95,0.805 0.261,0.328 0.453,0.695 0.57,1.101 0.117,0.407 0.152,0.821 0.105,1.239 -0.05,0.418 -0.175,0.812 -0.378,1.179 z"
                 fill="#3eaf9c"
                 id="path289" />
            </g>
          </g>
        </g>
      </g>
      <g
         clip-path="url(#1708568a6f)"
         id="g297"
         transform="matrix(3.3642056,0,0,3.3642056,-1242.6109,-415.17301)">
        <g
           clip-path="url(#3b73fa2fa0)"
           id="g296">
          <g
             clip-path="url(#5d45f4f6a1)"
             id="g295">
            <g
               clip-path="url(#18ad69be48)"
               id="g294">
              <path
                 d="m 533.461,182.465 c -0.203,0.371 -0.469,0.687 -0.801,0.949 -0.328,0.262 -0.699,0.449 -1.101,0.566 -0.407,0.118 -0.821,0.149 -1.243,0.102 -0.418,-0.047 -0.812,-0.176 -1.183,-0.379 -0.367,-0.203 -0.684,-0.473 -0.949,-0.801 -0.262,-0.332 -0.454,-0.699 -0.571,-1.105 -0.117,-0.406 -0.148,-0.817 -0.101,-1.238 0.047,-0.418 0.172,-0.813 0.375,-1.18 0.207,-0.371 0.472,-0.688 0.804,-0.949 0.329,-0.262 0.696,-0.45 1.102,-0.567 0.406,-0.117 0.82,-0.148 1.238,-0.101 0.422,0.047 0.817,0.176 1.184,0.379 0.371,0.203 0.687,0.472 0.949,0.804 0.266,0.328 0.457,0.696 0.57,1.102 0.118,0.406 0.153,0.82 0.106,1.238 -0.047,0.418 -0.172,0.813 -0.379,1.18 z"
                 fill="#3eaf9c"
                 id="path293" />
            </g>
          </g>
        </g>
      </g>
      <g
         clip-path="url(#fb6d70f750)"
         id="g301"
         transform="matrix(3.3642056,0,0,3.3642056,-1242.6109,-415.17301)">
        <g
           clip-path="url(#d1b7aa6906)"
           id="g300">
          <g
             clip-path="url(#b7ec6a4f00)"
             id="g299">
            <g
               clip-path="url(#1e8430029b)"
               id="g298">
              <path
                 d="m 519.309,219.699 c -0.207,0.367 -0.473,0.684 -0.805,0.946 -0.328,0.261 -0.695,0.449 -1.102,0.566 -0.406,0.117 -0.82,0.152 -1.238,0.101 -0.422,-0.046 -0.816,-0.171 -1.184,-0.378 -0.371,-0.204 -0.687,-0.473 -0.949,-0.801 -0.265,-0.332 -0.453,-0.699 -0.57,-1.106 -0.117,-0.406 -0.152,-0.816 -0.106,-1.238 0.047,-0.418 0.172,-0.812 0.379,-1.18 0.204,-0.371 0.469,-0.683 0.801,-0.949 0.332,-0.262 0.699,-0.449 1.106,-0.566 0.406,-0.117 0.816,-0.149 1.238,-0.102 0.418,0.047 0.812,0.176 1.183,0.379 0.368,0.207 0.684,0.473 0.95,0.805 0.261,0.328 0.453,0.695 0.57,1.101 0.117,0.407 0.152,0.821 0.102,1.239 -0.047,0.418 -0.172,0.812 -0.375,1.183 z"
                 fill="#3eaf9c"
                 id="path297" />
            </g>
          </g>
        </g>
      </g>
      <g
         clip-path="url(#2b6a18ae3e)"
         id="g305"
         transform="matrix(3.3642056,0,0,3.3642056,-1242.6109,-415.17301)">
        <g
           clip-path="url(#77777f17ba)"
           id="g304">
          <g
             clip-path="url(#1c049f85ff)"
             id="g303">
            <g
               clip-path="url(#cd412d3005)"
               id="g302">
              <path
                 d="m 522.758,82.1836 c 12.945,0.2266 25.109,7.418 31.644,18.5744 1.551,2.652 5.641,0.219 4.09,-2.4221 -7.398,-12.6484 -21.215,-20.6484 -35.847,-20.9023 -3.063,-0.0508 -2.954,4.6992 0.117,4.7539 z"
                 fill="#9cf2e2"
                 id="path301" />
            </g>
          </g>
        </g>
      </g>
      <g
         clip-path="url(#e36ccfbcd7)"
         id="g309"
         transform="matrix(3.3642056,0,0,3.3642056,-1242.6109,-415.17301)">
        <g
           clip-path="url(#93776d0c80)"
           id="g308">
          <g
             clip-path="url(#bbedfec39c)"
             id="g307">
            <g
               clip-path="url(#ae635d2452)"
               id="g306">
              <path
                 d="m 567.461,186.562 c -0.531,18.708 -2.797,37.305 -6.754,55.59 -0.648,2.985 3.977,4.121 4.629,1.121 4.039,-18.683 6.336,-37.711 6.883,-56.816 0.09,-3.059 -4.672,-2.957 -4.758,0.105 z"
                 fill="#9cf2e2"
                 id="path305" />
            </g>
          </g>
        </g>
      </g>
      <g
         clip-path="url(#d385a7a6e4)"
         id="g313"
         transform="matrix(3.3642056,0,0,3.3642056,-1242.6109,-415.17301)">
        <g
           clip-path="url(#b3084d342b)"
           id="g312">
          <g
             clip-path="url(#c1c196edf6)"
             id="g311">
            <g
               clip-path="url(#6bc7977b77)"
               id="g310">
              <path
                 d="m 519.637,136.766 c -0.215,0.39 -0.469,0.757 -0.758,1.097 -0.289,0.34 -0.609,0.653 -0.961,0.93 -0.348,0.277 -0.723,0.519 -1.121,0.727 -0.399,0.203 -0.813,0.367 -1.242,0.488 -0.434,0.125 -0.871,0.203 -1.317,0.242 -0.449,0.035 -0.894,0.027 -1.34,-0.023 -0.445,-0.051 -0.882,-0.145 -1.308,-0.282 -0.426,-0.136 -0.836,-0.312 -1.231,-0.531 -0.39,-0.215 -0.757,-0.469 -1.101,-0.758 -0.34,-0.293 -0.653,-0.613 -0.934,-0.961 -0.277,-0.351 -0.519,-0.726 -0.726,-1.125 -0.207,-0.398 -0.371,-0.812 -0.496,-1.242 -0.122,-0.43 -0.204,-0.871 -0.243,-1.316 -0.035,-0.446 -0.031,-0.891 0.02,-1.336 0.051,-0.446 0.144,-0.879 0.281,-1.305 0.137,-0.43 0.313,-0.836 0.531,-1.226 0.215,-0.395 0.469,-0.762 0.758,-1.102 0.289,-0.34 0.61,-0.652 0.961,-0.93 0.348,-0.277 0.723,-0.519 1.121,-0.726 0.399,-0.203 0.813,-0.367 1.242,-0.489 0.434,-0.125 0.872,-0.203 1.317,-0.242 0.449,-0.035 0.894,-0.027 1.34,0.024 0.445,0.05 0.882,0.144 1.308,0.281 0.426,0.137 0.836,0.312 1.231,0.531 0.39,0.215 0.758,0.469 1.101,0.758 0.34,0.293 0.653,0.613 0.934,0.961 0.277,0.351 0.519,0.727 0.726,1.125 0.208,0.398 0.372,0.812 0.497,1.242 0.121,0.43 0.203,0.871 0.242,1.317 0.035,0.445 0.031,0.89 -0.02,1.335 -0.051,0.446 -0.144,0.879 -0.281,1.305 -0.137,0.43 -0.313,0.836 -0.531,1.231 z"
                 fill="#443f35"
                 id="path309" />
            </g>
          </g>
        </g>
      </g>
      <g
         clip-path="url(#72f8336798)"
         id="g317"
         transform="matrix(3.3642056,0,0,3.3642056,-1242.6109,-415.17301)">
        <g
           clip-path="url(#7bd3c8e880)"
           id="g316">
          <g
             clip-path="url(#74f166be28)"
             id="g315">
            <g
               clip-path="url(#9696ad6e3d)"
               id="g314">
              <path
                 d="m 555.777,138.379 c -0.215,0.391 -0.468,0.758 -0.757,1.101 -0.29,0.34 -0.61,0.649 -0.961,0.93 -0.348,0.278 -0.723,0.52 -1.121,0.723 -0.399,0.207 -0.813,0.371 -1.247,0.492 -0.429,0.125 -0.867,0.203 -1.312,0.238 -0.449,0.039 -0.895,0.032 -1.34,-0.019 -0.445,-0.051 -0.883,-0.145 -1.309,-0.282 -0.425,-0.136 -0.835,-0.316 -1.23,-0.531 -0.391,-0.219 -0.758,-0.472 -1.102,-0.761 -0.343,-0.29 -0.652,-0.61 -0.933,-0.961 -0.277,-0.348 -0.52,-0.723 -0.727,-1.121 -0.207,-0.399 -0.371,-0.813 -0.496,-1.243 -0.121,-0.433 -0.203,-0.871 -0.242,-1.316 -0.035,-0.445 -0.031,-0.891 0.02,-1.336 0.05,-0.445 0.144,-0.883 0.281,-1.309 0.137,-0.425 0.312,-0.836 0.527,-1.226 0.219,-0.391 0.473,-0.758 0.762,-1.098 0.289,-0.344 0.609,-0.652 0.957,-0.93 0.351,-0.281 0.726,-0.523 1.125,-0.726 0.398,-0.203 0.812,-0.367 1.242,-0.492 0.434,-0.121 0.871,-0.203 1.316,-0.239 0.45,-0.039 0.895,-0.031 1.34,0.02 0.446,0.051 0.883,0.145 1.309,0.281 0.426,0.137 0.836,0.317 1.23,0.531 0.391,0.219 0.758,0.473 1.102,0.762 0.34,0.289 0.652,0.61 0.934,0.961 0.277,0.352 0.519,0.727 0.726,1.121 0.203,0.399 0.371,0.813 0.492,1.246 0.125,0.43 0.207,0.867 0.242,1.313 0.04,0.449 0.032,0.894 -0.015,1.34 -0.051,0.441 -0.145,0.879 -0.281,1.304 -0.137,0.426 -0.313,0.836 -0.532,1.227 z"
                 fill="#443f35"
                 id="path313" />
            </g>
          </g>
        </g>
      </g>
      <g
         clip-path="url(#90dbaa27f0)"
         id="g321"
         transform="matrix(3.3642056,0,0,3.3642056,-1242.6109,-415.17301)">
        <g
           clip-path="url(#914ffa3482)"
           id="g320">
          <g
             clip-path="url(#ce3d64cb49)"
             id="g319">
            <g
               clip-path="url(#48d0b00af6)"
               id="g318">
              <path
                 d="m 538.367,139.938 c -0.172,-1.368 -1.035,-2.227 -2.437,-2.325 -3.18,-0.226 -6.36,-0.265 -9.543,-0.109 -0.969,0.043 -2.117,0.769 -2.262,1.816 -0.23,1.684 -0.055,3.16 0.629,4.645 0.07,0.207 0.172,0.418 0.32,0.629 0.141,0.258 0.309,0.465 0.488,0.633 1.95,2.308 4.973,3.418 7.969,2.402 3.18,-1.074 5.258,-4.367 4.832,-7.695 z"
                 fill="#443f35"
                 id="path317" />
            </g>
          </g>
        </g>
      </g>
      <g
         clip-path="url(#98a90384af)"
         id="g322"
         transform="matrix(3.3642056,0,0,3.3642056,-1242.6109,-415.17301)">
        <path
           d="m 481.285,119.801 v 9.594 h 4.774 v 4.793 h 4.773 v 4.796 h 4.77 v 4.797 h 23.867 v -4.797 h 4.769 v -4.796 h 4.774 v -4.793 h 9.547 v 4.793 h 4.773 v 4.796 h 4.77 v 4.797 h 23.867 v -4.797 h 4.769 v -4.796 h 4.774 v -4.793 h 4.773 v -9.594 h -105"
           id="path321" />
      </g>
      <path
         d="m 440.75362,36.262994 h -16.05735 v -16.12464 h 16.05735 v 16.12464"
         fill="#ffffff"
         id="path322"
         style="stroke-width:3.36421" />
      <path
         d="M 456.811,52.397741 H 440.75362 V 36.262994 H 456.811 v 16.134747"
         fill="#ffffff"
         id="path323"
         style="stroke-width:3.36421" />
      <path
         d="M 424.69627,20.138354 H 408.64903 V 4.0002863 h 16.04724 V 20.138354"
         fill="#ffffff"
         id="path324"
         style="stroke-width:3.36421" />
      <path
         d="M 472.87169,36.262994 H 456.811 v -16.12464 h 16.06069 v 16.12464"
         fill="#ffffff"
         id="path325"
         style="stroke-width:3.36421" />
      <path
         d="M 488.92906,52.397741 H 472.87169 V 36.262994 h 16.05737 v 16.134747"
         fill="#ffffff"
         id="path326"
         style="stroke-width:3.36421" />
      <path
         d="M 456.811,20.138354 H 440.75362 V 4.0002863 H 456.811 V 20.138354"
         fill="#ffffff"
         id="path327"
         style="stroke-width:3.36421" />
      <path
         d="m 617.3744,36.262994 h -16.05733 v -16.12464 h 16.05733 v 16.12464"
         fill="#ffffff"
         id="path328"
         style="stroke-width:3.36421" />
      <path
         d="M 633.43178,52.397741 H 617.3744 V 36.262994 h 16.05738 v 16.134747"
         fill="#ffffff"
         id="path329"
         style="stroke-width:3.36421" />
      <path
         d="M 601.31707,20.138354 H 585.26982 V 4.0002863 h 16.04725 V 20.138354"
         fill="#ffffff"
         id="path330"
         style="stroke-width:3.36421" />
      <path
         d="m 649.4925,36.262994 h -16.06072 v -16.12464 h 16.06072 v 16.12464"
         fill="#ffffff"
         id="path331"
         style="stroke-width:3.36421" />
      <path
         d="M 665.54987,52.397741 H 649.4925 V 36.262994 h 16.05737 v 16.134747"
         fill="#ffffff"
         id="path332"
         style="stroke-width:3.36421" />
      <path
         d="M 633.43178,20.138354 H 617.3744 V 4.0002863 h 16.05738 V 20.138354"
         fill="#ffffff"
         id="path333"
         style="stroke-width:3.36421" />
    </g>
  </g>
</svg>
